<svg width="21" height="22" viewBox="0 0 21 22" fill="none" xmlns="http://www.w3.org/2000/svg">
<g id="search (3)" opacity="0.538951">
<path fill-rule="evenodd" clip-rule="evenodd" d="M19.8968 20.3623L14.3611 14.5262C15.7731 13.0899 16.6482 11.1116 16.6482 8.93042C16.6482 4.55668 13.1368 1 8.82408 1C4.50898 1 1 4.55668 1 8.93042C1 13.3023 4.50898 16.8608 8.82408 16.8608C10.7176 16.8608 12.4551 16.1731 13.8102 15.0355L19.3585 20.8858C19.4311 20.9632 19.5294 21 19.6277 21C19.7203 21 19.813 20.9651 19.8861 20.8952C20.0333 20.7512 20.0389 20.5115 19.8968 20.3623ZM8.82408 16.1047C4.92019 16.1047 1.74604 12.8855 1.74604 8.93042C1.74604 4.97347 4.92019 1.75618 8.82408 1.75618C12.7261 1.75618 15.9021 4.97347 15.9021 8.93042C15.9021 12.8855 12.7261 16.1047 8.82408 16.1047Z" fill="#787993"/>
<path d="M19.8968 20.3623L19.5341 20.7064L19.5347 20.7071L19.8968 20.3623ZM14.3611 14.5262L14.0046 14.1757L13.6661 14.52L13.9984 14.8703L14.3611 14.5262ZM13.8102 15.0355L14.173 14.6915L13.8492 14.35L13.4888 14.6526L13.8102 15.0355ZM19.3585 20.8858L19.7231 20.5436L19.7213 20.5417L19.3585 20.8858ZM19.8861 20.8952L20.2316 21.2567L20.2358 21.2526L19.8861 20.8952ZM20.2596 20.0182L14.7239 14.1821L13.9984 14.8703L19.5341 20.7064L20.2596 20.0182ZM14.7177 14.8767C16.218 13.3505 17.1482 11.2478 17.1482 8.93042H16.1482C16.1482 10.9755 15.3282 12.8292 14.0046 14.1757L14.7177 14.8767ZM17.1482 8.93042C17.1482 4.28682 13.4192 0.5 8.82408 0.5V1.5C12.8545 1.5 16.1482 4.82653 16.1482 8.93042H17.1482ZM8.82408 0.5C4.2265 0.5 0.5 4.28692 0.5 8.93042H1.5C1.5 4.82643 4.79147 1.5 8.82408 1.5V0.5ZM0.5 8.93042C0.5 13.572 4.22642 17.3608 8.82408 17.3608V16.3608C4.79155 16.3608 1.5 13.0326 1.5 8.93042H0.5ZM8.82408 17.3608C10.8411 17.3608 12.6912 16.6277 14.1317 15.4185L13.4888 14.6526C12.219 15.7185 10.594 16.3608 8.82408 16.3608V17.3608ZM13.4474 15.3796L18.9957 21.2298L19.7213 20.5417L14.173 14.6915L13.4474 15.3796ZM18.9939 21.2279C19.1701 21.4157 19.405 21.5 19.6277 21.5V20.5C19.6538 20.5 19.6922 20.5107 19.7231 20.5436L18.9939 21.2279ZM19.6277 21.5C19.8471 21.5 20.064 21.4168 20.2315 21.2567L19.5407 20.5337C19.562 20.5134 19.5935 20.5 19.6277 20.5V21.5ZM20.2358 21.2526C20.5762 20.9196 20.5917 20.367 20.2589 20.0175L19.5347 20.7071C19.486 20.6559 19.4904 20.5829 19.5365 20.5378L20.2358 21.2526ZM8.82408 15.6047C5.20276 15.6047 2.24604 12.6158 2.24604 8.93042H1.24604C1.24604 13.1552 4.63762 16.6047 8.82408 16.6047V15.6047ZM2.24604 8.93042C2.24604 5.24323 5.20267 2.25618 8.82408 2.25618V1.25618C4.6377 1.25618 1.24604 4.70372 1.24604 8.93042H2.24604ZM8.82408 2.25618C12.4437 2.25618 15.4021 5.24332 15.4021 8.93042H16.4021C16.4021 4.70363 13.0085 1.25618 8.82408 1.25618V2.25618ZM15.4021 8.93042C15.4021 12.6157 12.4436 15.6047 8.82408 15.6047V16.6047C13.0086 16.6047 16.4021 13.1552 16.4021 8.93042H15.4021Z" fill="#787993"/>
</g>
</svg>
